<svg xmlns="http://www.w3.org/2000/svg" width="1800" height="1260" viewBox="0 0 1800 1260" role="img" aria-labelledby="title desc">
  <title id="title">SIMPLE nonuniform filtering and refinement schematic</title>
  <desc id="desc">Geometry-first schematic of SIMPLE nonuniform filtering in abinitio3D, refine3D_auto, and postprocess_nu, showing local labels, Potts regularization, and constrained high-resolution refinement.</desc>
  <defs>
    <style>
      .bg { fill: #f6f5ef; }
      .ink { fill: #17212b; }
      .muted { fill: #5b6672; }
      .soft { fill: #ffffff; stroke: #c7ced6; stroke-width: 1.5; }
      .panel { fill: #ffffff; stroke: #bbc5cf; stroke-width: 2; }
      .top-panel { fill: #fbfbf8; stroke: #b7c0ca; stroke-width: 2; }
      .title { font: 700 34px Helvetica, Arial, sans-serif; fill: #17212b; }
      .subtitle { font: 400 17px Helvetica, Arial, sans-serif; fill: #4f5b66; }
      .section-title { font: 700 21px Helvetica, Arial, sans-serif; fill: #17212b; }
      .panel-title { font: 700 24px Helvetica, Arial, sans-serif; fill: #17212b; }
      .label { font: 700 14px Helvetica, Arial, sans-serif; fill: #22303b; }
      .small { font: 400 13px Helvetica, Arial, sans-serif; fill: #52606c; }
      .tiny { font: 400 11.5px Helvetica, Arial, sans-serif; fill: #5e6973; }
      .mono { font: 700 13px Menlo, Consolas, monospace; fill: #25313b; }
      .callout { font: 700 13px Helvetica, Arial, sans-serif; fill: #25313b; }
      .arrow { stroke: #6e7883; stroke-width: 2.3; fill: none; marker-end: url(#arrowhead); }
      .thin-arrow { stroke: #6e7883; stroke-width: 1.5; fill: none; marker-end: url(#arrowhead); }
      .loop { stroke: #2d6f9f; stroke-width: 2.4; fill: none; marker-end: url(#blueArrow); }
      .teal-stroke { stroke: #14877c; }
      .blue-stroke { stroke: #2d6f9f; }
      .gold-stroke { stroke: #a96f13; }
      .red-stroke { stroke: #b94a48; }
      .dashed { stroke-dasharray: 7 6; }
      .grid-line { stroke: #d7dde3; stroke-width: 1; }
      .neigh { fill: #dfe8f0; stroke: #7b8997; stroke-width: 1; }
      .neigh-center { fill: #f05a4f; stroke: #9c2b28; stroke-width: 1.4; }
      .voxel-a { fill: #314f89; }
      .voxel-b { fill: #3f7fb5; }
      .voxel-c { fill: #40a7a0; }
      .voxel-d { fill: #a9c95a; }
      .voxel-e { fill: #f2c14e; }
      .voxel-f { fill: #e07b3f; }
      .mask { fill: #e9eef2; stroke: #7e8c98; stroke-width: 2; }
      .frontier { fill: none; stroke: #f05a4f; stroke-width: 5; stroke-linecap: round; stroke-linejoin: round; }
      .active { fill: none; stroke: #2d6f9f; stroke-width: 4; stroke-linecap: round; stroke-linejoin: round; }
    </style>

    <marker id="arrowhead" markerWidth="12" markerHeight="8" refX="10" refY="4" orient="auto">
      <path d="M0,0 L12,4 L0,8 Z" fill="#6e7883" />
    </marker>
    <marker id="blueArrow" markerWidth="12" markerHeight="8" refX="10" refY="4" orient="auto">
      <path d="M0,0 L12,4 L0,8 Z" fill="#2d6f9f" />
    </marker>
    <linearGradient id="heat" x1="0" y1="0" x2="1" y2="1">
      <stop offset="0%" stop-color="#2f4f8f" />
      <stop offset="34%" stop-color="#3aa6a0" />
      <stop offset="62%" stop-color="#e6c64f" />
      <stop offset="100%" stop-color="#d95f45" />
    </linearGradient>
    <linearGradient id="bfac" x1="0" y1="1" x2="1" y2="0">
      <stop offset="0%" stop-color="#f2c14e" />
      <stop offset="45%" stop-color="#e7b15c" />
      <stop offset="100%" stop-color="#2d6f9f" />
    </linearGradient>
    <filter id="shadow" x="-8%" y="-8%" width="116%" height="116%">
      <feDropShadow dx="0" dy="6" stdDeviation="7" flood-color="#1e2a33" flood-opacity="0.12" />
    </filter>
  </defs>

  <rect class="bg" x="0" y="0" width="1800" height="1260" />

  <text class="title" x="70" y="62">SIMPLE nonuniform filtering is a spatial label-field problem</text>
  <text class="subtitle" x="70" y="94">Each voxel in a masked 3-D volume selects a local transfer function; tent smoothing and a Potts prior turn independent wins into a coherent local-resolution field.</text>

  <rect class="top-panel" x="70" y="126" width="1660" height="330" rx="18" filter="url(#shadow)" />
  <text class="section-title" x="100" y="165">Common geometry and regularization</text>

  <!-- Inputs and candidate bank -->
  <g transform="translate(110 198)">
    <rect class="soft" x="0" y="0" width="260" height="204" rx="14" />
    <text class="label" x="22" y="30">half-map evidence</text>
    <path class="mask" d="M60,62 C40,80 40,118 62,140 C82,160 126,166 158,152 C196,136 214,100 197,74 C178,44 91,38 60,62 Z" />
    <path class="thin-arrow" d="M56,172 C100,150 160,150 205,172" />
    <text class="small" x="32" y="190">even/odd cross-prediction</text>
    <line class="arrow" x1="260" y1="102" x2="314" y2="102" />
  </g>

  <g transform="translate(430 198)">
    <rect class="soft" x="0" y="0" width="300" height="204" rx="14" />
    <text class="label" x="24" y="30">active candidate bank</text>
    <g transform="translate(25 58)">
      <rect x="0" y="0" width="26" height="76" rx="4" class="voxel-f" />
      <rect x="36" y="10" width="26" height="66" rx="4" class="voxel-e" />
      <rect x="72" y="20" width="26" height="56" rx="4" class="voxel-d" />
      <rect x="108" y="30" width="26" height="46" rx="4" class="voxel-c" />
      <rect x="144" y="40" width="26" height="36" rx="4" class="voxel-b" />
      <rect x="180" y="50" width="26" height="26" rx="4" class="voxel-a" />
      <rect x="216" y="56" width="26" height="20" rx="4" fill="#1f345f" />
    </g>
    <text class="tiny" x="25" y="154">coarse bins</text>
    <text class="tiny" x="192" y="154">fine bins</text>
    <text class="small" x="24" y="184">discrete low-pass labels L(x)</text>
    <line class="arrow" x1="300" y1="102" x2="356" y2="102" />
  </g>

  <!-- Label field -->
  <g transform="translate(795 175)">
    <text class="label" x="0" y="18">masked 3-D label field</text>
    <path class="mask" d="M110,32 C59,39 28,83 40,131 C53,184 103,207 166,199 C233,191 274,153 268,105 C262,54 185,21 110,32 Z" />
    <clipPath id="sliceClip">
      <path d="M110,32 C59,39 28,83 40,131 C53,184 103,207 166,199 C233,191 274,153 268,105 C262,54 185,21 110,32 Z" />
    </clipPath>
    <g clip-path="url(#sliceClip)">
      <rect x="34" y="26" width="240" height="184" fill="#eef2f5" />
      <g transform="translate(42 38)">
        <rect class="voxel-f" x="0" y="0" width="28" height="28" />
        <rect class="voxel-f" x="28" y="0" width="28" height="28" />
        <rect class="voxel-e" x="56" y="0" width="28" height="28" />
        <rect class="voxel-d" x="84" y="0" width="28" height="28" />
        <rect class="voxel-c" x="112" y="0" width="28" height="28" />
        <rect class="voxel-b" x="140" y="0" width="28" height="28" />
        <rect class="voxel-a" x="168" y="0" width="28" height="28" />
        <rect class="voxel-a" x="196" y="0" width="28" height="28" />

        <rect class="voxel-f" x="0" y="28" width="28" height="28" />
        <rect class="voxel-e" x="28" y="28" width="28" height="28" />
        <rect class="voxel-e" x="56" y="28" width="28" height="28" />
        <rect class="voxel-d" x="84" y="28" width="28" height="28" />
        <rect class="voxel-c" x="112" y="28" width="28" height="28" />
        <rect class="voxel-b" x="140" y="28" width="28" height="28" />
        <rect class="voxel-b" x="168" y="28" width="28" height="28" />
        <rect class="voxel-a" x="196" y="28" width="28" height="28" />

        <rect class="voxel-f" x="0" y="56" width="28" height="28" />
        <rect class="voxel-e" x="28" y="56" width="28" height="28" />
        <rect class="voxel-d" x="56" y="56" width="28" height="28" />
        <rect class="voxel-d" x="84" y="56" width="28" height="28" />
        <rect class="voxel-c" x="112" y="56" width="28" height="28" />
        <rect class="voxel-c" x="140" y="56" width="28" height="28" />
        <rect class="voxel-b" x="168" y="56" width="28" height="28" />
        <rect class="voxel-a" x="196" y="56" width="28" height="28" />

        <rect class="voxel-e" x="0" y="84" width="28" height="28" />
        <rect class="voxel-d" x="28" y="84" width="28" height="28" />
        <rect class="voxel-d" x="56" y="84" width="28" height="28" />
        <rect class="voxel-c" x="84" y="84" width="28" height="28" />
        <rect class="voxel-c" x="112" y="84" width="28" height="28" />
        <rect class="voxel-b" x="140" y="84" width="28" height="28" />
        <rect class="voxel-b" x="168" y="84" width="28" height="28" />
        <rect class="voxel-a" x="196" y="84" width="28" height="28" />

        <rect class="voxel-d" x="0" y="112" width="28" height="28" />
        <rect class="voxel-d" x="28" y="112" width="28" height="28" />
        <rect class="voxel-c" x="56" y="112" width="28" height="28" />
        <rect class="voxel-c" x="84" y="112" width="28" height="28" />
        <rect class="voxel-b" x="112" y="112" width="28" height="28" />
        <rect class="voxel-b" x="140" y="112" width="28" height="28" />
        <rect class="voxel-a" x="168" y="112" width="28" height="28" />
        <rect class="voxel-a" x="196" y="112" width="28" height="28" />
      </g>
      <g opacity="0.45">
        <path class="grid-line" d="M70,38 L70,178" />
        <path class="grid-line" d="M98,34 L98,190" />
        <path class="grid-line" d="M126,30 L126,202" />
        <path class="grid-line" d="M154,30 L154,202" />
        <path class="grid-line" d="M182,34 L182,196" />
        <path class="grid-line" d="M210,40 L210,180" />
        <path class="grid-line" d="M42,66 L268,66" />
        <path class="grid-line" d="M38,94 L272,94" />
        <path class="grid-line" d="M38,122 L272,122" />
        <path class="grid-line" d="M48,150 L258,150" />
      </g>
    </g>
    <path class="active" d="M170,58 C207,68 235,93 234,121 C232,155 195,177 153,176" />
    <text class="tiny" x="75" y="230">label colors are local resolution bins</text>
    <line class="arrow" x1="300" y1="110" x2="356" y2="110" />
  </g>

  <!-- Potts prior -->
  <g transform="translate(1190 177)">
    <rect class="soft" x="0" y="0" width="500" height="234" rx="14" />
    <text class="label" x="24" y="30">spatial Potts prior</text>
    <text class="small" x="24" y="55">regularizes the label field, not the density directly</text>
    <g transform="translate(35 82)">
      <g opacity="0.55">
        <circle class="neigh" cx="34" cy="22" r="10" />
        <circle class="neigh" cx="64" cy="22" r="10" />
        <circle class="neigh" cx="94" cy="22" r="10" />
        <circle class="neigh" cx="24" cy="52" r="10" />
        <circle class="neigh" cx="54" cy="52" r="10" />
        <circle class="neigh" cx="84" cy="52" r="10" />
        <circle class="neigh" cx="114" cy="52" r="10" />
      </g>
      <g opacity="0.78">
        <circle class="neigh" cx="52" cy="72" r="10" />
        <circle class="neigh" cx="82" cy="72" r="10" />
        <circle class="neigh" cx="112" cy="72" r="10" />
        <circle class="neigh" cx="42" cy="102" r="10" />
        <circle class="neigh-center" cx="72" cy="102" r="12" />
        <circle class="neigh" cx="102" cy="102" r="10" />
        <circle class="neigh" cx="132" cy="102" r="10" />
      </g>
      <g>
        <circle class="neigh" cx="70" cy="122" r="10" />
        <circle class="neigh" cx="100" cy="122" r="10" />
        <circle class="neigh" cx="130" cy="122" r="10" />
        <circle class="neigh" cx="60" cy="152" r="10" />
        <circle class="neigh" cx="90" cy="152" r="10" />
        <circle class="neigh" cx="120" cy="152" r="10" />
        <circle class="neigh" cx="150" cy="152" r="10" />
      </g>
      <path class="thin-arrow red-stroke" d="M72,102 L42,102" />
      <path class="thin-arrow red-stroke" d="M72,102 L102,102" />
      <path class="thin-arrow red-stroke" d="M72,102 L72,72" />
      <path class="thin-arrow red-stroke" d="M72,102 L90,152" />
    </g>
    <text class="callout" x="220" y="95">26-connected neighborhood</text>
    <text class="small" x="220" y="123">ICM chooses labels that balance:</text>
    <text class="mono" x="232" y="154">unary cost + beta * jump cost</text>
    <text class="small" x="220" y="184">step difference 0 or 1 is tolerated;</text>
    <text class="small" x="220" y="204">larger jumps are penalized as discontinuities.</text>
  </g>

  <!-- Workflow panels -->
  <g transform="translate(70 498)">
    <rect class="panel teal-stroke" x="0" y="0" width="530" height="642" rx="18" filter="url(#shadow)" />
    <rect x="0" y="0" width="530" height="78" rx="18" fill="#e8f5f2" />
    <text class="panel-title" x="30" y="34">abinitio3D</text>
    <text class="small" x="30" y="58">static NU bank with auxiliary ML/MAP competition</text>

    <g transform="translate(32 104)">
      <text class="label" x="0" y="0">candidate set</text>
      <rect class="soft" x="0" y="18" width="466" height="110" rx="12" />
      <g transform="translate(22 52)">
        <rect class="voxel-f" x="0" y="0" width="36" height="44" rx="5" />
        <rect class="voxel-e" x="46" y="0" width="36" height="44" rx="5" />
        <rect class="voxel-d" x="92" y="0" width="36" height="44" rx="5" />
        <rect class="voxel-c" x="138" y="0" width="36" height="44" rx="5" />
        <rect class="voxel-b" x="184" y="0" width="36" height="44" rx="5" />
        <rect class="voxel-a" x="230" y="0" width="36" height="44" rx="5" />
        <rect x="292" y="-8" width="128" height="60" rx="10" fill="#fff4dc" stroke="#a96f13" stroke-width="2" stroke-dasharray="8 6" />
        <text class="callout" x="311" y="17">ML/MAP</text>
        <text class="tiny" x="306" y="37">aux candidate</text>
      </g>
      <text class="small" x="22" y="106">auxiliary volume can win voxel labels during ab initio reconstruction</text>
    </g>

    <line class="arrow" x1="265" y1="236" x2="265" y2="274" />

    <g transform="translate(32 278)">
      <text class="label" x="0" y="0">voxelwise competition inside mask</text>
      <path class="mask" d="M150,28 C95,30 54,68 57,116 C60,164 104,194 172,190 C250,185 308,146 300,97 C292,50 225,24 150,28 Z" />
      <clipPath id="abinitioClip">
        <path d="M150,28 C95,30 54,68 57,116 C60,164 104,194 172,190 C250,185 308,146 300,97 C292,50 225,24 150,28 Z" />
      </clipPath>
      <g clip-path="url(#abinitioClip)">
        <rect x="60" y="30" width="244" height="160" fill="url(#heat)" opacity="0.72" />
      </g>
      <path class="dashed gold-stroke" d="M178,54 C211,72 223,115 199,146 C178,173 129,167 109,137 C87,104 116,60 178,54 Z" fill="none" stroke-width="3" />
      <text class="small" x="330" y="68">discrete LP labels</text>
      <text class="small" x="330" y="94">plus optional aux label</text>
      <text class="small" x="330" y="120">regularized by tent + Potts</text>
    </g>

    <line class="arrow" x1="265" y1="486" x2="265" y2="522" />

    <g transform="translate(32 532)">
      <rect class="soft" x="0" y="0" width="466" height="70" rx="12" />
      <text class="label" x="20" y="28">derived references for the next E-step</text>
      <text class="mono" x="20" y="52">*_nu_filt even/odd + merged map</text>
      <path class="thin-arrow teal-stroke" d="M330,36 C380,18 420,20 448,36" />
    </g>
  </g>

  <g transform="translate(635 498)">
    <rect class="panel blue-stroke" x="0" y="0" width="530" height="642" rx="18" filter="url(#shadow)" />
    <rect x="0" y="0" width="530" height="78" rx="18" fill="#eaf1fb" />
    <text class="panel-title" x="30" y="34">refine3D_auto</text>
    <text class="small" x="30" y="58">constrained high-resolution shell refinement during alignment</text>

    <g transform="translate(32 106)">
      <text class="label" x="0" y="0">active bank plus one challenger</text>
      <rect class="soft" x="0" y="18" width="466" height="118" rx="12" />
      <g transform="translate(24 60)">
        <rect class="voxel-e" x="0" y="0" width="34" height="38" rx="5" />
        <rect class="voxel-d" x="43" y="0" width="34" height="38" rx="5" />
        <rect class="voxel-c" x="86" y="0" width="34" height="38" rx="5" />
        <rect class="voxel-b" x="129" y="0" width="34" height="38" rx="5" />
        <rect class="voxel-a" x="172" y="0" width="34" height="38" rx="5" />
        <path class="thin-arrow" d="M222,19 L274,19" />
        <rect x="288" y="-8" width="84" height="54" rx="9" fill="#fde9e5" stroke="#b94a48" stroke-width="2" />
        <text class="callout" x="303" y="14">next</text>
        <text class="tiny" x="303" y="34">shell</text>
      </g>
      <text class="small" x="24" y="112">only one new Fourier shell is evaluated at a time</text>
    </g>

    <line class="arrow" x1="265" y1="252" x2="265" y2="286" />

    <g transform="translate(32 292)">
      <text class="label" x="0" y="0">geometric constraint: test the frontier</text>
      <path class="mask" d="M151,26 C95,31 58,68 58,113 C58,166 106,197 170,190 C236,183 294,145 299,98 C303,53 224,20 151,26 Z" />
      <path class="active" d="M177,55 C216,64 243,93 237,126 C231,160 195,174 160,169" />
      <path class="frontier" d="M193,63 C224,74 239,98 229,127 C218,158 184,166 160,160" />
      <circle cx="195" cy="76" r="7" fill="#f05a4f" />
      <circle cx="223" cy="106" r="7" fill="#f05a4f" />
      <circle cx="205" cy="142" r="7" fill="#f05a4f" />
      <circle cx="171" cy="154" r="7" fill="#f05a4f" />
      <text class="small" x="326" y="58">test voxels already</text>
      <text class="small" x="326" y="80">assigned to the finest</text>
      <text class="small" x="326" y="102">active NU label</text>
      <text class="callout" x="326" y="142">unary frontier test</text>
      <text class="callout" x="326" y="162">accept any win</text>
    </g>

    <path class="loop" d="M405,468 C462,430 465,322 405,252" />
    <text class="tiny" x="378" y="482">accepted shell joins active bank</text>

    <g transform="translate(32 514)">
      <rect class="soft" x="0" y="0" width="466" height="82" rx="12" />
      <text class="label" x="20" y="28">outputs guide the next refinement iteration</text>
      <text class="small" x="20" y="52">_nu_filt references feed alignment; finest accepted bin sets matching LP</text>
      <text class="small" x="20" y="70">ML auxiliary candidates are omitted in this refinement path</text>
    </g>
  </g>

  <g transform="translate(1200 498)">
    <rect class="panel gold-stroke" x="0" y="0" width="530" height="642" rx="18" filter="url(#shadow)" />
    <rect x="0" y="0" width="530" height="78" rx="18" fill="#fff4dc" />
    <text class="panel-title" x="30" y="34">postprocess_nu</text>
    <text class="small" x="30" y="58">automated only for refine3D_auto final maps; manual otherwise</text>

    <g transform="translate(32 104)">
      <text class="label" x="0" y="0">label map is estimated from half maps</text>
      <rect class="soft" x="0" y="18" width="466" height="124" rx="12" />
      <path class="mask" d="M112,42 C72,48 46,76 47,111 C49,153 89,176 139,171 C194,165 232,134 229,96 C226,59 169,34 112,42 Z" />
      <clipPath id="postClip">
        <path d="M112,42 C72,48 46,76 47,111 C49,153 89,176 139,171 C194,165 232,134 229,96 C226,59 169,34 112,42 Z" />
      </clipPath>
      <rect x="58" y="57" width="150" height="96" fill="url(#heat)" opacity="0.65" clip-path="url(#postClip)" />
      <text class="small" x="260" y="66">same local competition</text>
      <text class="small" x="260" y="88">plus classical FSC aux candidate</text>
      <text class="small" x="260" y="110">but no E-step coupling</text>
    </g>

    <line class="arrow" x1="265" y1="256" x2="265" y2="290" />

    <g transform="translate(32 296)">
      <text class="label" x="0" y="0">resolution-dependent sharpening model</text>
      <rect class="soft" x="0" y="18" width="466" height="162" rx="12" />
      <line x1="38" y1="138" x2="410" y2="138" stroke="#9aa5af" stroke-width="1.2" />
      <line x1="62" y1="38" x2="62" y2="142" stroke="#9aa5af" stroke-width="1.2" />
      <path d="M62,96 C126,96 170,96 214,96 C258,96 286,108 318,124 C348,137 378,138 410,138" fill="none" stroke="url(#bfac)" stroke-width="5" stroke-linecap="round" />
      <line x1="218" y1="46" x2="218" y2="144" stroke="#b94a48" stroke-width="2" stroke-dasharray="6 5" />
      <text class="tiny" x="178" y="160">global FSC</text>
      <text class="tiny" x="74" y="56">global B</text>
      <text class="tiny" x="300" y="60">fixed-B sigmoid damping</text>
      <text class="small" x="38" y="184">base bins use NU B/Hann transfer; aux voxels use classical B then FSC filter</text>
    </g>

    <line class="arrow" x1="265" y1="486" x2="265" y2="520" />

    <g transform="translate(32 526)">
      <rect class="soft" x="0" y="0" width="466" height="82" rx="12" />
      <text class="label" x="20" y="28">global antialiasing and products</text>
      <text class="small" x="20" y="52">4-pixel Hann window at the finest active NU bin</text>
      <text class="mono" x="20" y="72">*_pproc_nu, *_lp_nu, plus classic postprocess</text>
    </g>
  </g>

  <rect class="soft" x="70" y="1174" width="1660" height="52" rx="14" />
  <text class="small" x="100" y="1206">Policy boundary: low-resolution even/odd insertion is only a registration trick and is not part of the NU half-map competition, FSC evaluation, or final filtering products.</text>
</svg>
